<?xml version="1.0" encoding="UTF-8"?>
<svg id="Layer_2" data-name="Layer 2" xmlns="http://www.w3.org/2000/svg" viewBox="0 0 345.88 200.02">
  <defs>
    <style>
      .cls-1 {
        fill: #7d808d;
      }
    </style>
  </defs>
  <g id="Layer_1-2" data-name="Layer 1">
    <g>
      <path class="cls-1" d="M111.47,48.02c-1.56-.47-1.36-2.89-.42-4.17,1.76-2.39,12.7-7.51,13.41-9.82s-.27-6.12.18-8.8c.19-1.14,1.22-1.94,1.43-3.08.91-4.83-3.25-5.96-2.92-7.34.17-.7,1.64-1.34,2.04-2.51.5-1.47-.15-3.53,1.01-4.98,1.94-.99,4.89-7.12,6.29-7.26,3.17-.31,2.84,2.75,4.1,4.19,1.36,1.57,3.56,1.9,4.21,4.85.34,1.51-.48,2.7-.33,3.32.27,1.13,2.41.33,2.21,3.01-.22,2.91-4.05,4.04-1.46,7.77l8.14.11.69-9.24c.74-1.16,2.89-1.17,4.15-1.28,12.87-1.06,27.35.69,40.38.22,4.08-.11,2.24,9.01,2.77,9.55h7.51c1-2.96-1.76-5.37-1.6-7.86.11-1.66,1.87-1.2,2.24-2.33.4-1.25-.13-2.87.26-4.25.34-1.22,2.64-2.73,3.6-3.89,1.52-1.84,1.09-5.03,5.19-4.06-.18,4.16,4.34,4.8,5.49,7.61.65,1.6.32,3.1.76,4.48.47,1.47,2.55,2.9,2.01,4.61-.43,1.35-3.14.09-2.16,6.03.23,1.39,1.21,2.46,1.41,3.82.34,2.32-.43,5.16.2,7.29.77,2.62,11.24,8.13,13.75,10.25,1.22.99-.9,3.75-1.53,3.75h-12l-1.12,1.12v26.95c.66,1.07,1.5,1.03,2.59,1.16,5.52.65,12.69-.84,18.08-.08,9.76,1.38,12.32-.37,21.81-1.36,22.42-2.34,47.96-.95,69.3,6.24l12.76,109.28-.03,7.89c-9.39.63-18.72.86-28.16.78-104.22-.98-208.16.18-312.75,0-2.65-.23-4.58-.27-4.9-3.38-.21-2.04.59-7.24.82-9.75,3.13-33.95,8.48-67.75,11.29-101.76.77-4.94,9.96-5.91,14.19-6.8,20.51-4.29,41.07-4.04,61.79-1.76,2.94.32,8.29,2.16,10.64,2.05,1.42-.06,2.6-1.33,4.44-1.43,7.09-.38,14.31.33,21.4.02v-28.07l-1.12-1.12h-12ZM135.84,12.84c.7-.63-1.79-3.98-2.62-4.47-1.61,1.15-2.15,2.5-1.88,4.47h4.5ZM214.52,9.18c-.57-.35-2.37-.17-2.97.24l-.7,3.41h4.5c.25-.24-.51-3.47-.82-3.66ZM191.35,18.08h-36v5.24h34.88c1.69-1.21,1.07-3.42,1.12-5.24ZM210.84,18.08v4.5h4.51v-4.5h-4.51ZM135.85,18.83h-5.26s.33,3.05.33,3.05l4.93.7v-3.75ZM130.97,33.05h84.75c1.01,0,2.09-3.02-.13-4.36s-9.02-.98-11.9-.91c-12.4.3-25.05.72-37.43.82-12.13.09-24.29-.13-36.41-.03l1.13,4.49ZM123.1,42.78h100.5c.46-1.76-.44-1.26-.96-1.71-1.5-1.31-3.3-2.74-5.4-2.79l-90.38.4-3.76,4.11ZM216.1,48.02h-85.12l-1.12,1.12v26.95l3.75,1.12v-16.09c0-4.31,6.75-8.39,10.85-8.64,14.37-.87,12.64,13.47,12.51,23.51l3.64,1.23v-16.09c0-3.91,8.47-9.22,12.38-9.22,4.7,0,13.12,5.81,13.12,10.71v14.6h3v-15.34c0-1.74,3.32-6.02,4.87-7.12,5.66-4,12.74-2.85,16.88,2.63.42.55,2.25,3.52,2.25,3.74v16.09h3v-29.19ZM151.6,77.21v-15.34c0-2.08-4.75-4.34-7.06-4.11-1.8.18-5.69,3.36-5.69,4.86v14.6h12.75ZM180.1,77.21c.16-7.38,3.78-21.24-8.57-19.43-1.44.21-5.68,3.22-5.68,4.09v15.34h14.25ZM207.85,77.21v-14.6c0-1.79-4.25-4.91-6.38-4.91s-7.12,3.19-7.12,4.91v14.6h13.5ZM46.6,102.66h30l-.85-21.6c-1.01-1.61-24.12-.79-27.69-.53l-1.45,22.13ZM300.1,102.66c-1.87-6.13.31-14.03-.75-19.84-.44-2.41-2.84-2.48-4.84-2.65-3.03-.27-20.56-.48-22.43.14-.99.33-1.98,5.22-1.98,6.26v16.09h30ZM99.1,83.95v14.6c0,2.17-5.25,2.17-5.25,0v-14.97l-12.75-2.62.85,22.35,25.01,3.86c.68-.03.43-5.38.38-6.37-.13-2.68-.93-12.07-1.62-14.1-.63-1.84-4.84-2.28-6.62-2.75ZM247.6,98.55c-.95-3.36.7-10.72,0-14.6l-6.77,2.02c-.63,6.27-1.91,13.06-2.26,19.3-.06,1.12-.43,2.19,1.15,1.89l25.05-3.83c-.81-6.39,1.55-13.66.87-19.79-.11-1.03,0-2.03-1.22-2.49l-10.86,1.73c-2.29,1.54,1.64,17.69-3.32,17.67-.78,0-2.48-1.34-2.64-1.91ZM29.35,83.2v15.34c0,.26-.82,1.18-.83,1.79-1.16.76-4.42-.87-4.42-1.79v-13.85c-1.7-.09-6,.17-6.63,1.99l-2.37,20.46,26.17-3.81.83-21.63-12.75,1.5ZM322.6,84.7v13.85c0,2.17-5.25,2.17-5.25,0v-14.22c0-2.23-10.59-2.74-12.75-2.62v20.58c0,2.35,5.83,1.69,7.12,1.88,6.38.93,12.77,1.96,19.13,2.98l-2.23-21.18-6.02-1.28ZM124.6,193.98v-83.46c0-1.69,3.76-3.92,5.59-3.4,27.78,1.98,58.95-2.51,86.32,0,1.94.18,3.49.28,4.84,1.91v83.83c1.27,1.78,2.63,1.36,3-.75l11.25-109.66-8.9.11-.94,8.8-5.91.83c1.86,11.69-6.78,10.85-5.25-.01l-9.05.33c-1.8,1.25,1.3,11.71-5.09,6.67l-.21-5.77-1.13-1.12-8.52-.11c1.27,10.9-6.7,11.11-5.24,0h-9.76c-.14,1.52.79,8.37-1.87,8.3-4.2-.18-3.37-5.17-3.37-8.3h-9.01s-1.1,7.5-1.1,7.5l-2.26.79-1.77-1.29-.11-7-9.43.7-.44,6.3-1.78,1.29-2.26-.79-1.1-7.5h-9.76s-.1,7.01-.1,7.01c-.54,1.61-2.92,1.42-4.3,1.12l-.88-8.1-5.87-2-.43-7.06c-.8-1.14-8.94-1.27-9.23.39l11.81,110.44h2.25ZM125.33,82.42v4.53h95.28v-4.53h-95.28ZM14.34,116.13c14.05-2.27,28.13-3.53,42.35-4.52l24.77.79,26.29,4.31c1.54-.24,1.69-3.83-.18-4.17-30.6-6.26-62.71-6.74-93.12.7l-.11,2.88ZM331.56,112.43c-22.78-4.1-46.11-5.99-69.24-3.68-2.99.3-23.44,3.34-24.14,4.35-.59.86-.29,2.07-.33,3.03,30.9-5.24,62.87-5.34,93.75,0l-.04-3.71ZM216.1,112.39l-83.58-.02c-.79-.05-2.67,1.51-2.67,1.9v79.72h6.75v-72.23c0-.13,1.16-1.32,1.51-1.49l70.73.31c.39.24,1.26,1.63,1.26,1.93v71.48h6v-81.59ZM77.31,117.67l-31.46-.04-1.56,31c-.69,1.45-3.21,1.76-4.1.47l.42-30.73c-8.94-.02-17.85,1.8-26.57,3.66l-4.18,35.27c34.32-4.77,69.17-4.69,103.5,0l-3.82-35.1c-8.81-2.04-17.81-3.9-26.93-3.82-1.09,1.09,2.5,27.69.42,30.73-.91,1.32-3.31.84-4.23-.34l-1.47-31.09ZM263.35,148.7v-30.31c-8.8.16-17.63,1.58-26.08,3.91l-3.92,35.01c28.19-3.9,56.73-4.66,85.12-2.24,5.87.5,11.74,1.87,17.63,2.24l-3.09-35.09c-.83-1.29-23.64-4.28-26.91-3.84-1.09,1.09,2.5,27.69.42,30.73-.91,1.32-3.31.84-4.23-.34l-1.43-31.13c-10.5-.71-20.92-1.18-31.4.11l-1.72,30.84c-.47,1.88-3.94,1.59-4.38.12ZM204.85,193.98v-67.74l-1.12-1.12h-61.5l-1.12,1.12v66.62l3.75,1.12v-40.04c0-7.72,10.41-14.78,16.28-18.19,1.82-1.06,10.01-5.68,11.29-6s1.84.01,2.97.44c8.12,3.09,23.98,13.27,25.53,22.43,1.97,11.63-1.1,27.41.18,39.49l.7,1.54,3.05.33ZM150.1,154.68v39.3h4.5v-28.82c0-.38,1.07-4.76,1.33-5.41,2.43-6.18,11.9-10.77,17.79-12.87,1.71,0,11.66,6.26,13.15,7.78,1.01,1.03,4.47,6.62,4.47,7.51v31.81l4.42-.08c.34-1.58.75-3.12.86-4.76.56-8.08.99-32.03-1.9-38.58-3.2-7.23-14.85-11.91-21.71-14.98-7.66,4.36-21.37,9.16-22.92,19.09ZM186.1,193.98v-31.06c0-3.42-9.54-10.07-13.01-9.89-4.12.21-13.24,7.14-13.24,11.38v29.57h26.25ZM114,163.39c-34.11-6.61-69.36-5.44-103.67-.74-2.53.82-2.39,12.96-2.74,15.98-.6,5.12-1.27,10.3-2.24,15.35h111.75s-3.1-30.58-3.1-30.58ZM340.6,193.98l-4.05-30.76c-33.99-6.34-69.14-5.33-103.25-.36l-3.7,31.12h111Z"/>
      <polygon class="cls-1" points="282.85 133.35 282.85 121.38 286.13 120.67 287.35 121.75 287.35 132.98 286.13 134.06 282.85 133.35"/>
      <path class="cls-1" d="M148.38,129.01c7.17-2.13,8.01,8.87-.16,7.34-3.5-.66-3.41-6.28.16-7.34Z"/>
      <ellipse class="cls-1" cx="196.71" cy="132.56" rx="4" ry="3.99"/>
      <path class="cls-1" d="M284.05,84.76l2.6.26c.89,2.2,1.93,11.4-1.18,11.7-4.36.42-2.94-11.46-1.42-11.96Z"/>
      <g>
        <path class="cls-1" d="M60.62,120.71c5.89-1.46,3.61,18.87-1.33,12.33-1.26-1.67-1.57-11.61,1.33-12.33Z"/>
        <path class="cls-1" d="M60.57,84c4.16-1.2,3.87,9.26,3.16,11.44-.77,2.37-4.57,1.45-5.11-1.4-.37-1.95-.44-9.34,1.95-10.03Z"/>
      </g>
    </g>
  </g>
</svg>